<?xml version="1.0" encoding="UTF-8"?>
<svg id="Calque_1" xmlns="http://www.w3.org/2000/svg" version="1.1" viewBox="0 0 1000 1500">
  <!-- Generator: Adobe Illustrator 30.1.0, SVG Export Plug-In . SVG Version: 2.1.1 Build 136)  -->
  <defs>
    <style>
      .st0 {
        fill: #d2471a;
      }
    </style>
  </defs>
  <path class="st0" d="M376.36,28.8v-3.47c13.84-3.15,24.26-4.96,38.66-2.03,15.44,3.15,28.52,7.32,39.59,18.55,12.88,13.06,21.8,28.74,26.97,46.06,5.25,17.6,7.36,35.61,6.75,53.97-.45,13.52-1.95,26.49-4.23,39.77l-4.05,23.58c-2.33,13.56-3.64,29.43-.58,42.83,1.23,5.39,3.45,10.2,7.02,14.51,8.59,10.37,18.27,16.66,31.95,19.46,15.41,3.16,31.08,3.97,46.78,2.12,9.16-1.08,17.61-2.99,26.57-4.68l28.24-5.33c8.61-1.62,17.01-2.32,25.78-2.3,11.43.02,22.19,2.83,31.79,8.49,6.07,3.58,9.89,8.75,11.7,15.31,2.24,8.12.58,16.18-5.02,22.81-8.18,9.68-19.27,16.61-31.84,20.03-15.21,4.14-40.68,5.95-56.57,5.76l-43.5-.52c-26.71-.32-51.63-1.15-77.37,6.24-12.42,3.56-23.74,9.14-33.62,17.1-4.25,3.43-7.83,7.15-10.59,11.75-5.97,9.93-6.18,21.67-1.12,32.05,5.21,10.7,13.82,19.05,24.55,24.93,19.76,10.83,53,18.85,75.56,21.71l37.72,4.78c8.8,1.12,17.2,2.21,25.79,4.18,18.14,4.17,34.2,14.35,40.18,31.97,2.53,7.46,3.31,15.05,2.54,22.87-1.4,14.1-11.32,23.86-23.15,31.32-7.84,4.94-15.89,8.96-24.66,12.28l-37.24,14.09c-7.84,2.97-15.29,5.72-22.78,9.4-13.4,6.58-24.86,15.75-33.62,27.48-4.79,6.42-7.6,13.41-10.04,20.88-4.04,12.38-4.01,24.94-.2,37.37,2.47,8.07,6.4,15.09,12.71,21.02,5.96,5.6,12.43,10.22,19.9,14.02,27.36,13.92,56.56,18.17,87.14,19.82,5.23.28,10.17.49,15.29,1.63,14.72,3.29,26.61,13.62,31.74,27.23,2.63,6.98,4.31,13.9,5.17,21.2.97,8.22-1.34,15.81-6.29,22.41-5.96,7.94-14.76,12.79-25.1,13.19-6.81.26-13.32-.39-20.03-1.69l-24.77-4.78c-10.71-2.06-21.16-3-32.12-2.85-19.75.28-38.29,6.37-53.97,17.75-7.38,5.35-13.81,11.35-19.1,18.63-7.09,9.75-11.96,21.81-9.84,33.79,1.51,8.5,7.39,15.05,15.92,17.79,20.09,6.46,46.23-1.85,63.89,2.42,8.18,1.98,14.08,7.55,15.9,15.49,1.5,6.52.59,13.09-1.93,19.44-4.31,10.84-11.99,19.85-21.84,26.63-15.43,10.64-34.7,14.58-53.15,18.56-13.9,3-27.22,6.75-40.16,12.46-12.08,5.33-23.64,11.82-30.81,22.8-5.04,7.72-7.5,19.62.53,26.07,13.83,11.12,29.92-3.9,46.7-5.11,8.79-.64,16.3,3.68,19.92,11.39,6.17,13.13,4.38,28.46-4.15,40.39-3.59,5.02-7.62,9.25-12.03,13.61-5.82,5.76-11.4,11.3-16.9,17.4-19.58,21.71-31.84,48.36-35.19,76.96-3,25.62-.02,56.38,11.47,79.98,9.17,18.83,24.62,32.07,46.69,34.56,17.3,1.95,32.53-.44,50.17.32,10.26.44,20.01,2.02,29.76,5,14.63,4.47,27.21,12.85,36.25,24.81,8.05,10.64,13.38,22.84,15.32,35.9,1.82,12.27.4,24.33-3.31,36.15-2.92,9.29-7.26,17.61-12.56,25.83-12.8,19.87-27.11,30.82-46.74,43.57-.57.37-1.49.43-2.26.03-.94-.49-1.11-2.03-.21-2.81.54-.46,1.36-1.11,2.21-1.68,11.41-7.57,22.36-15.28,31.45-25.33,19.22-21.25,32.77-50.53,26.83-78.86l-.14-.67-.14-.6-.15-.64c-2.37-10.05-6.7-19.34-12.87-27.77-17.98-24.56-47.89-30.02-77.47-29.17-18.06.52-37.77,2.3-54.37-4.92-8.98-3.91-16.48-9.69-22.57-17.12-20.02-24.41-24.75-65.39-21.56-95.36,3.11-29.27,15.27-56.75,35.03-79.17,5.67-6.44,11.51-12.3,17.62-18.31,4.41-4.33,8.47-8.51,12.07-13.46,7.98-10.96,9.75-25.07,4.02-37.19-2.82-5.96-8.55-9.34-15.37-9-15.93.79-33.28,16.79-49.42,4.75-4.5-3.36-6.98-8.15-7.26-13.66-.71-14.19,10.04-26.23,21.73-33.74,15.87-10.2,37.35-16.86,55.94-20.91,17.88-3.9,36.99-7.6,52.03-17.67,9.71-6.51,17.33-15.32,21.37-25.99,2.07-5.47,2.82-11.07,1.53-16.61-3.7-15.92-22.96-14.23-36.29-13.29-12.93.91-28.64,2.11-40.76-1.79-10.03-3.23-16.98-10.94-18.73-20.94-2.48-14.2,3.96-28.86,13.17-39.9,12.42-14.89,29.4-25.79,48.54-31.11,11.46-3.19,22.96-3.97,34.85-3.37,10.97.56,21.31,2.41,32.03,4.42l20.27,3.81c4.95.93,9.84,1.12,14.79.92,8.98-.35,16.62-4.48,21.86-11.36,5.86-7.69,6.91-15.2,4.96-24.37-1.21-5.69-2.25-11.19-4.45-16.61-3.21-7.9-8.58-14.32-15.97-18.91-10.22-6.34-19-6.31-31.25-6.98-28.44-1.56-55.62-6.18-81.31-18.26-8.79-4.14-16.53-9.26-23.57-15.7-7.14-6.53-11.75-14.3-14.51-23.34-3.92-12.86-4.13-25.92-.05-38.77,2.34-7.37,4.97-14.3,9.44-20.77,11.14-16.12,28.24-28.32,46.97-35.4l30.05-11.35c19.33-7.3,46.08-16.38,58.87-32.58,3.26-4.12,5.3-8.7,6.03-13.86,1.16-8.18.31-16.31-2.56-24.09-5.33-14.46-18.69-23.34-33.6-27.39-6.94-1.89-13.76-3.04-20.94-3.94l-30.6-3.82c-11.65-1.46-22.84-3.01-34.37-5.3-19.18-3.81-44.66-10.8-61.07-20.99-10.22-6.35-18.33-15.08-23.18-25.76-6.27-13.83-3.72-29.45,6.62-40.72,10.71-11.67,26.83-20,42.33-24.37,26.6-7.51,51.65-6.5,79.2-6.23l47.68.46c14.38.14,41.21-2.2,54.78-7.04,9.91-3.53,18.58-9.49,25.16-17.31,4.81-5.71,6.1-12.59,4.15-19.54-1.51-5.41-4.61-9.69-9.6-12.69-15.97-9.59-32.45-9.05-50.6-6.49-9.92,1.4-19.37,3.25-29.19,5.27-9.45,1.94-18.4,3.84-28,5.13-17.42,2.35-34.94,1.46-52.06-2.25-10.15-2.2-18.78-6.86-26.15-13.72-4.66-4.33-8.75-8.89-11.42-14.63-6.06-13.03-5.36-33.79-3.02-47.66l4.11-24.28c5.62-33.24,8.09-62.89-1.62-95.78-4.86-16.47-13.19-31.43-25.26-44-5.95-6.19-12.89-10.74-21.14-13.65-6.56-2.31-13.07-3.92-19.98-5.14-12.04-2.13-21.51-.16-33.28,2.18-.52.1-1.37.09-1.81.06Z"/>
</svg>